<svg width="973" height="241" viewBox="0 0 973 241" xmlns="http://www.w3.org/2000/svg"><title>powered-by-madewithvue-1</title><g fill="none"><path d="M276.628 141.761v-43.71a3.058 3.058 0 0 1 1.559-2.674 7.195 7.195 0 0 1 4.053-1.03 6.14 6.14 0 0 1 3.598 1.042 3.13 3.13 0 0 1 1.51 2.675v3.933a15.35 15.35 0 0 1 14.39-8.286 13.19 13.19 0 0 1 8.479 2.998 18.79 18.79 0 0 1 5.672 7.902 20.026 20.026 0 0 1 7.027-8.106 16.932 16.932 0 0 1 9.233-2.782 17.736 17.736 0 0 1 13.191 5.78c3.701 3.845 5.556 9.01 5.564 15.493v26.765c-.1 1.1-.75 2.075-1.727 2.59a6.871 6.871 0 0 1-3.993 1.2 6.703 6.703 0 0 1-3.885-1.2 3.25 3.25 0 0 1-1.727-2.578v-26.705c.17-3.06-.922-6.055-3.022-8.287a9.593 9.593 0 0 0-7.039-3.01 9.81 9.81 0 0 0-7.075 3.01 10.792 10.792 0 0 0-3.118 8.07v27.018a2.95 2.95 0 0 1-1.667 2.746 8.322 8.322 0 0 1-4.04.912 8.154 8.154 0 0 1-3.886-.912 2.938 2.938 0 0 1-1.727-2.746v-26.91a11.104 11.104 0 0 0-2.962-7.962 9.425 9.425 0 0 0-7.075-3.117 9.593 9.593 0 0 0-7.075 3.01 11.152 11.152 0 0 0-2.962 8.178v26.693a3.25 3.25 0 0 1-1.727 2.578 6.895 6.895 0 0 1-3.993 1.2 6.56 6.56 0 0 1-3.993-1.2 3.286 3.286 0 0 1-1.583-2.578zm82.454-9.605c0-5.756 2.159-9.753 6.476-11.992 4.317-2.238 10.577-3.37 18.779-3.393h4.797v-2.039a13.635 13.635 0 0 0-2.65-8.394c-1.767-2.359-4.45-3.538-8.047-3.538a17.772 17.772 0 0 0-8.142 1.775 26.741 26.741 0 0 1-3.826 1.787 3.406 3.406 0 0 1-2.974-1.787 7.195 7.195 0 0 1-1.127-3.945c0-1.87 1.743-3.47 5.229-4.797a30.087 30.087 0 0 1 11.068-2.05c7.41 0 12.895 1.998 16.452 5.995a21.585 21.585 0 0 1 5.349 14.942v27.09a3.238 3.238 0 0 1-1.56 2.65 6.547 6.547 0 0 1-3.945 1.138 5.996 5.996 0 0 1-3.669-1.139 3.262 3.262 0 0 1-1.51-2.65v-3.825c-4.798 5.596-10.23 8.394-16.298 8.394a14.762 14.762 0 0 1-10.312-3.67c-2.726-2.43-4.09-5.947-4.09-10.552zm11.44-1.403a6.751 6.751 0 0 0 1.943 5.24 7.195 7.195 0 0 0 5.073 1.775 11.416 11.416 0 0 0 7.83-3.454c2.478-2.302 3.718-4.748 3.718-7.339v-4.017h-2.699a59.287 59.287 0 0 0-7.938.432 11.68 11.68 0 0 0-5.504 2.266 5.996 5.996 0 0 0-2.422 5.097zm39.501-5.828v-9.93a21.585 21.585 0 0 1 5.66-15c3.4-4 8.396-6.292 13.647-6.26a15.038 15.038 0 0 1 8.394 2.398 16.788 16.788 0 0 1 5.612 5.888V67.713a3.046 3.046 0 0 1 1.619-2.638 7.543 7.543 0 0 1 4.1-1.032 7.29 7.29 0 0 1 4.054 1.02 3.058 3.058 0 0 1 1.559 2.638v74.048a3.286 3.286 0 0 1-1.619 2.59 6.583 6.583 0 0 1-3.993 1.2 5.768 5.768 0 0 1-3.598-1.2 3.346 3.346 0 0 1-1.559-2.626v-3.825a14.834 14.834 0 0 1-5.887 5.996 17.136 17.136 0 0 1-9.006 2.506c-5.037 0-9.462-2.175-13.275-6.524a22.029 22.029 0 0 1-5.708-14.941zm11.332 0a11.272 11.272 0 0 0 3.238 7.878 10.12 10.12 0 0 0 7.663 3.49 10.912 10.912 0 0 0 7.662-3.274c2.303-2.174 3.454-4.049 3.454-5.624V115.02a10.48 10.48 0 0 0-3.346-8.047 10.936 10.936 0 0 0-7.663-3.105 10.36 10.36 0 0 0-7.71 3.43 10.864 10.864 0 0 0-3.298 7.722v9.905zm43.385 0v-10.253c-.026-5.63 2.373-11 6.584-14.738a22.304 22.304 0 0 1 15.877-6.2 22.04 22.04 0 0 1 15.17 5.613 18.143 18.143 0 0 1 6.307 14.174 15.685 15.685 0 0 1-.755 5.336 4.977 4.977 0 0 1-2.399 2.866 10.22 10.22 0 0 1-3.021 1.043 24.51 24.51 0 0 1-3.67.216H476.05v2.494a10.625 10.625 0 0 0 3.957 8.646 15.421 15.421 0 0 0 10.085 3.226 17.76 17.76 0 0 0 8.394-2.062 17.736 17.736 0 0 1 4.797-2.063 3.813 3.813 0 0 1 3.106 1.727 5.66 5.66 0 0 1 1.295 3.358c0 1.774-1.727 3.569-5.18 5.384a27.15 27.15 0 0 1-12.736 2.722c-7.338 0-13.334-1.999-17.987-5.996a19.367 19.367 0 0 1-7.04-15.493zm11.321-9.162h17.916a5.528 5.528 0 0 0 3.19-.635c.633-.69.928-1.626.803-2.555a9.593 9.593 0 0 0-3.13-7.195 10.792 10.792 0 0 0-7.77-2.973 11.451 11.451 0 0 0-7.771 2.818 9.09 9.09 0 0 0-3.238 7.195v3.345zM534.556 98.7a3.981 3.981 0 0 1 2.399-3.347 9.437 9.437 0 0 1 4.796-1.403 3.262 3.262 0 0 1 3.454 2.051l11.991 33.577 9.15-29.8c.504-1.654 1.835-2.482 3.993-2.482 2.159 0 3.49.828 3.994 2.482l9.065 29.98 12.088-33.781c.432-1.367 1.547-2.05 3.345-2.05 1.695.035 3.35.52 4.797 1.402a4.041 4.041 0 0 1 2.398 3.454 3.85 3.85 0 0 1-.431 1.727l-16.789 43.817c-.575 1.511-2.086 2.267-4.532 2.267-2.447 0-3.994-.72-4.641-2.159l-9.39-27.844-9.281 27.58c-.648 1.655-2.267 2.483-4.857 2.483-2.398 0-3.909-.828-4.533-2.483l-16.788-43.601a6.835 6.835 0 0 1-.228-1.87zm77.706-23.097a5.432 5.432 0 0 1 1.943-4.209 7.1 7.1 0 0 1 9.281 0 5.468 5.468 0 0 1 0 8.394 6.931 6.931 0 0 1-9.281 0 5.48 5.48 0 0 1-1.943-4.185zm.971 66.158v-43.71a3.06 3.06 0 0 1 1.56-2.65 7.195 7.195 0 0 1 4.053-1.03 7.53 7.53 0 0 1 4.1 1.03 3.046 3.046 0 0 1 1.62 2.65v43.71a3.274 3.274 0 0 1-1.68 2.59 6.811 6.811 0 0 1-4.04 1.2 6.56 6.56 0 0 1-3.994-1.2 3.286 3.286 0 0 1-1.619-2.59zm23.097-13.059v-54.07a3.082 3.082 0 0 1 1.726-2.59 7.195 7.195 0 0 1 3.885-1.08 7.47 7.47 0 0 1 3.946 1.08 3.07 3.07 0 0 1 1.774 2.59v19.75h13.191a2.65 2.65 0 0 1 2.267 1.2 5.528 5.528 0 0 1 0 5.995 2.65 2.65 0 0 1-2.267 1.2h-13.19v25.901c0 2.59.56 4.425 1.678 5.504 1.12 1.08 3.082 1.62 5.888 1.62h3.778a4.617 4.617 0 0 1 3.597 1.402 5.252 5.252 0 0 1 0 6.907 4.605 4.605 0 0 1-3.597 1.404h-3.778c-12.599.016-18.899-5.589-18.899-16.813zm35.722 13.059V67.713a3.058 3.058 0 0 1 1.56-2.638 7.279 7.279 0 0 1 4.053-1.02 7.615 7.615 0 0 1 4.053 1.032 3.034 3.034 0 0 1 1.679 2.638v34.296a15.205 15.205 0 0 1 13.814-8.286 17.13 17.13 0 0 1 13.19 6.26 21.825 21.825 0 0 1 5.553 15v26.766a3.094 3.094 0 0 1-1.727 2.746 7.663 7.663 0 0 1-3.993 1.031 7.47 7.47 0 0 1-3.885-1.019 3.082 3.082 0 0 1-1.727-2.746v-26.705a11.032 11.032 0 0 0-3.238-7.747 10.18 10.18 0 0 0-7.663-3.441 10.025 10.025 0 0 0-7.195 3.07 10.864 10.864 0 0 0-3.13 8.13v26.693a3.262 3.262 0 0 1-1.726 2.578 6.883 6.883 0 0 1-3.993 1.2 6.571 6.571 0 0 1-3.994-1.2 3.286 3.286 0 0 1-1.63-2.59z" fill="#435B71"/><path d="M748.633 97.18a2.782 2.782 0 0 1 1.355-2.266 4.797 4.797 0 0 1 2.854-.971 2.518 2.518 0 0 1 2.59 1.619l14.246 38.853 14.246-38.374c.576-1.367 1.403-2.05 2.482-2.05a5.264 5.264 0 0 1 2.807.971 2.686 2.686 0 0 1 1.51 2.159 3.837 3.837 0 0 1-.431 1.726l-17.376 45.569c-.432 1.151-1.511 1.727-3.238 1.727s-2.806-.576-3.238-1.727l-17.375-45.569a2.854 2.854 0 0 1-.432-1.666zm49.969 28.493v-28.78a2.398 2.398 0 0 1 1.031-1.835 3.801 3.801 0 0 1 2.543-.863 3.73 3.73 0 0 1 2.398.863 2.398 2.398 0 0 1 1.08 1.835v28.78c0 3.602 1.437 7.055 3.992 9.593a12.843 12.843 0 0 0 18.995 0 13.527 13.527 0 0 0 3.993-9.593V96.689c.02-.757.427-1.45 1.08-1.835a4.233 4.233 0 0 1 2.482-.755 3.993 3.993 0 0 1 2.398.755 2.23 2.23 0 0 1 1.02 1.835v28.924a19.462 19.462 0 0 1-6.104 14.246 20.482 20.482 0 0 1-34.92-14.186h.012zm52.128-.204v-12.1a18.85 18.85 0 0 1 5.995-13.982c7.988-7.749 20.652-7.865 28.78-.264a18.455 18.455 0 0 1 5.996 14.043 13.85 13.85 0 0 1-.695 4.796 4.509 4.509 0 0 1-2.267 2.578 10.7 10.7 0 0 1-2.854.972 22.784 22.784 0 0 1-3.597.216h-24.355v3.993a12.615 12.615 0 0 0 4.593 10.193 17.808 17.808 0 0 0 11.811 3.837 17.508 17.508 0 0 0 6.416-1.08 18.611 18.611 0 0 0 4.209-2.158 4.437 4.437 0 0 1 2.326-1.079 2.674 2.674 0 0 1 2.099 1.127c.548.614.87 1.397.911 2.219 0 1.51-1.547 3.078-4.64 4.7a24.739 24.739 0 0 1-11.548 2.399c-6.836 0-12.412-1.887-16.729-5.66a18.779 18.779 0 0 1-6.451-14.75zm7.015-8.85h21.585a8.91 8.91 0 0 0 4.317-.695 3.298 3.298 0 0 0 1.079-2.95 13.37 13.37 0 0 0-3.825-9.438 12.7 12.7 0 0 0-9.666-4.077 13.19 13.19 0 0 0-9.593 3.861 12.46 12.46 0 0 0-3.945 9.222l.048 4.077zm41.863 23.887a5.732 5.732 0 0 1 1.355-3.885 4.353 4.353 0 0 1 3.441-1.57 4.245 4.245 0 0 1 3.286 1.63 5.66 5.66 0 0 1 1.415 3.825 5.504 5.504 0 0 1-1.415 3.718 4.245 4.245 0 0 1-3.286 1.619 4.353 4.353 0 0 1-3.441-1.571 5.564 5.564 0 0 1-1.355-3.766zm10.145 26.502c-.033-.88.277-1.74.863-2.398a2.794 2.794 0 0 1 2.158-.948c3.198 0 5.285-1.167 6.26-3.501.975-2.335 1.48-5.832 1.511-10.493V96.69a2.194 2.194 0 0 1 .971-1.883 4.689 4.689 0 0 1 5.013 0 2.23 2.23 0 0 1 1.02 1.883v53.099c0 13.59-4.75 20.386-14.247 20.386a3.49 3.49 0 0 1-2.698-.948 3.286 3.286 0 0 1-.851-2.218zm10.792-89.314a4.269 4.269 0 0 1-1.403-3.19 4.101 4.101 0 0 1 1.403-3.13 4.893 4.893 0 0 1 3.454-1.294 4.569 4.569 0 0 1 3.297 1.295 4.173 4.173 0 0 1 1.355 3.13 4.353 4.353 0 0 1-1.343 3.19 4.473 4.473 0 0 1-3.297 1.354 4.797 4.797 0 0 1-3.466-1.355zm17.375 60.498a3.76 3.76 0 0 1 .756-2.158 2.135 2.135 0 0 1 1.727-1.08c.895.17 1.726.585 2.399 1.2a22.065 22.065 0 0 0 4.64 2.53 18.263 18.263 0 0 0 7.195 1.295c3.814 0 6.612-.72 8.394-2.159a6.74 6.74 0 0 0 2.699-5.504 7.71 7.71 0 0 0-2.747-6.211 18.491 18.491 0 0 0-6.643-3.502l-7.818-2.398a14.822 14.822 0 0 1-6.692-4.161 11.2 11.2 0 0 1-2.746-7.939 14.27 14.27 0 0 1 4.293-10.217c2.838-2.91 7.1-4.369 12.783-4.377a28.624 28.624 0 0 1 9.881 1.679c3.054 1.12 4.585 2.318 4.593 3.598a4.377 4.377 0 0 1-.863 2.398 2.458 2.458 0 0 1-2.05 1.295 32.042 32.042 0 0 1-3.994-1.511 19.438 19.438 0 0 0-7.399-1.523c-3.597 0-6.296.847-8.094 2.542a7.675 7.675 0 0 0-2.698 5.708 5.996 5.996 0 0 0 2.794 5.18 23.863 23.863 0 0 0 6.691 3.059l7.89 2.338a12.927 12.927 0 0 1 6.608 4.677 14.51 14.51 0 0 1 2.698 9.077 12.435 12.435 0 0 1-4.58 10.205c-3.063 2.479-7.328 3.718-12.796 3.718a25.986 25.986 0 0 1-11.992-2.543c-3.285-1.678-4.928-3.417-4.928-5.216z" fill="#42B983"/><path d="M61.557 190.707a90.876 90.876 0 0 0 6.765 5.154 96.502 96.502 0 0 0 7.29 4.557h.071a91.571 91.571 0 0 0 71.562 7.585 81.733 81.733 0 0 0 2.664-.871h.06c.83-.284 1.651-.587 2.471-.891l.415-.162c.73-.284 1.469-.567 2.198-.871l.334-.132a101.61 101.61 0 0 0 5.002-2.258l.223-.111c.73-.355 1.448-.73 2.167-1.104l.375-.202a85.712 85.712 0 0 0 2.187-1.206l.152-.08a94.315 94.315 0 0 0 4.668-2.846l.263-.172c.675-.446 1.35-.895 2.026-1.347l.283-.192a95.07 95.07 0 0 0 6.46-4.962l.244-.213a145.12 145.12 0 0 0 1.893-1.64l.132-.122a129.44 129.44 0 0 0 4.05-3.817l.051-.051a79.993 79.993 0 0 0 1.813-1.894l.162-.172a92.329 92.329 0 0 0 5.336-6.298l.061-.081c.547-.71 1.083-1.428 1.61-2.147l.07-.091a92.025 92.025 0 0 0 4.588-6.977l.06-.091a91.885 91.885 0 0 0 5.115-9.985 92.415 92.415 0 0 0 3.037-7.959v-.101a91.592 91.592 0 0 0-3.169-65.284 93.218 93.218 0 0 0-3.848-7.736l-.05-.102a93.145 93.145 0 0 0-4.487-7.22l-.09-.131a80.656 80.656 0 0 0-1.56-2.188v-.07a245.028 245.028 0 0 0-3.565-4.456l-.1-.122a48.36 48.36 0 0 0-1.682-1.944l-.223-.243a112.281 112.281 0 0 0-3.817-4.05l-.071-.071a92.7 92.7 0 0 0-1.853-1.782l-.344-.314a82.465 82.465 0 0 0-1.793-1.62l-.212-.193a93.627 93.627 0 0 0-4.193-3.443l-.435-.334a85.331 85.331 0 0 0-1.762-1.316l-.435-.314c-1.449-1.013-2.947-2.026-4.436-3.038l-.486-.304-1.802-1.094-.588-.344a103.55 103.55 0 0 0-2.025-1.144l-.304-.172a98.676 98.676 0 0 0-2.37-1.246l-.465-.233-1.914-.931-.688-.324-1.874-.84-.577-.254a78.95 78.95 0 0 0-2.47-1.013l-.305-.111a84.583 84.583 0 0 0-2.177-.82l-.739-.264-1.873-.637-.72-.233a91.663 91.663 0 0 0-60.382 1.782c-2.734 1.012-5.438 2.238-8.05 3.544H79.4c-2.562 1.276-5.063 2.704-7.544 4.233l-.102.06a98.005 98.005 0 0 0-7.088 4.892l-.132.1a91.298 91.298 0 0 0-6.52 5.5l-.143.13c-.675.636-1.35 1.273-2.025 1.915a114.69 114.69 0 0 0-3.95 4.152l-.151.172a232.34 232.34 0 0 0-1.742 2.025l-.101.121a87.822 87.822 0 0 0-3.494 4.456l-.141.192a43.51 43.51 0 0 0-1.51 2.117l-.151.212a87.496 87.496 0 0 0-3.038 4.75l-.121.202a80.318 80.318 0 0 0-1.286 2.238l-.162.284a88.107 88.107 0 0 0-2.593 5.063l-.08.172c-.375.79-.73 1.58-1.084 2.37l-.152.344a95.624 95.624 0 0 0-2.106 5.286v.111c-.304.84-.588 1.68-.861 2.521l-.122.385c-.276.85-.54 1.708-.79 2.572l-.01.264a91.744 91.744 0 0 0 .83 53.172l.132.416c.257.776.52 1.549.79 2.318l.101.294a118.99 118.99 0 0 0 2.026 5.175l.131.303c.324.743.662 1.482 1.013 2.218l.172.354a92.88 92.88 0 0 0 2.522 4.942v.081c.415.75.85 1.509 1.296 2.268l.162.284c.466.79.911 1.509 1.367 2.238l.07.121a184.798 184.798 0 0 0 3.12 4.598l.162.222c.492.675.995 1.35 1.508 2.026l.152.202a92.457 92.457 0 0 0 3.555 4.314 91.504 91.504 0 0 0 1.832 2.025l.173.182a92.648 92.648 0 0 0 5.964 5.833l.121.101c.679.608 1.367 1.205 2.026 1.793l.131.04z" fill="#FFF"/><path d="M119.945 240.893a7.909 7.909 0 0 1-6.835-3.94l-8.617-14.925-.628-.091c-44.872-6.98-79.985-42.339-86.65-87.258l-.092-.628-13.164-7.625a7.878 7.878 0 0 1 0-13.65l13.215-7.635.091-.628c6.847-45.437 42.73-80.978 88.23-87.39l.638-.09L113.13 4.88a7.878 7.878 0 0 1 13.65 0l7.089 12.212.628.091c45.071 6.608 80.553 41.856 87.46 86.883l.09.628 13.894 8.121a7.878 7.878 0 0 1 0 13.65l-13.923 8.04-.092.628c-6.82 44.43-41.484 79.409-85.85 86.63l-.617.102-8.689 15.088a7.909 7.909 0 0 1-6.825 3.939zM60.86 189.927a90.876 90.876 0 0 0 6.764 5.155 96.502 96.502 0 0 0 7.29 4.557h.072a91.571 91.571 0 0 0 71.562 7.584 81.731 81.731 0 0 0 2.663-.87h.06c.831-.284 1.651-.588 2.471-.892l.416-.162c.729-.283 1.468-.567 2.197-.87l.334-.132a101.613 101.613 0 0 0 5.003-2.259l.222-.11a87.07 87.07 0 0 0 2.167-1.105l.375-.202a85.71 85.71 0 0 0 2.187-1.205l.152-.081a94.316 94.316 0 0 0 4.668-2.846l.264-.172c.675-.445 1.35-.894 2.025-1.347l.283-.192a95.07 95.07 0 0 0 6.461-4.962l.243-.213c.635-.54 1.266-1.086 1.894-1.64l.131-.122a129.44 129.44 0 0 0 4.05-3.817l.051-.05a79.995 79.995 0 0 0 1.813-1.894l.162-.172a92.328 92.328 0 0 0 5.337-6.299l.06-.081a105.29 105.29 0 0 0 1.61-2.147l.071-.09a92.025 92.025 0 0 0 4.587-6.978l.061-.091a91.885 91.885 0 0 0 5.114-9.984 92.415 92.415 0 0 0 3.038-7.96v-.1a91.592 91.592 0 0 0-3.18-65.305 93.218 93.218 0 0 0-3.848-7.736l-.05-.102a93.144 93.144 0 0 0-4.486-7.22l-.092-.131a80.656 80.656 0 0 0-1.559-2.188v-.07a88.286 88.286 0 0 0-3.504-4.466l-.1-.122a48.36 48.36 0 0 0-1.682-1.944l-.223-.243a112.282 112.282 0 0 0-3.817-4.05l-.071-.071a92.703 92.703 0 0 0-1.853-1.782l-.344-.314a82.467 82.467 0 0 0-1.793-1.62l-.212-.193a93.626 93.626 0 0 0-4.193-3.443l-.435-.334a85.334 85.334 0 0 0-1.762-1.316l-.436-.314c-1.448-1.013-2.946-2.026-4.435-3.038l-.486-.304-1.802-1.094-.588-.344a102.29 102.29 0 0 0-2.025-1.144l-.304-.172a98.674 98.674 0 0 0-2.37-1.246l-.465-.233-1.914-.931-.719-.254-1.873-.84-.577-.253a78.95 78.95 0 0 0-2.471-1.013l-.304-.111a84.582 84.582 0 0 0-2.177-.82l-.74-.264-1.873-.638-.719-.233a91.663 91.663 0 0 0-60.382 1.783c-2.734 1.012-5.438 2.238-8.05 3.544h-.082c-2.562 1.276-5.063 2.704-7.544 4.233l-.101.06a98.005 98.005 0 0 0-7.088 4.891l-.132.102a91.298 91.298 0 0 0-6.521 5.498l-.142.132c-.675.634-1.35 1.272-2.025 1.914a114.69 114.69 0 0 0-3.95 4.151l-.151.172a232.34 232.34 0 0 0-1.742 2.026l-.101.121a87.822 87.822 0 0 0-3.494 4.456l-.142.192a43.51 43.51 0 0 0-1.509 2.117l-.151.212a87.496 87.496 0 0 0-3.038 4.75l-.122.202a80.318 80.318 0 0 0-1.286 2.238l-.162.283a88.108 88.108 0 0 0-2.592 5.063l-.081.173c-.375.79-.73 1.58-1.084 2.37l-.152.343c-.668 1.752-1.377 3.524-1.994 5.276v.112c-.304.84-.588 1.68-.861 2.521l-.122.385c-.276.85-.54 1.708-.79 2.572l-.07.263a91.744 91.744 0 0 0 .83 53.173l.132.415c.256.777.52 1.55.79 2.32l.1.293a118.99 118.99 0 0 0 2.026 5.174l.132.304a72.13 72.13 0 0 0 1.012 2.218l.172.354c.8 1.691 1.65 3.352 2.522 4.942v.08c.415.75.85 1.51 1.296 2.269l.162.284c.466.79.911 1.508 1.367 2.237l.07.122a184.799 184.799 0 0 0 3.12 4.597l.162.223c.493.675.996 1.35 1.509 2.025l.151.203a92.457 92.457 0 0 0 3.555 4.314 91.504 91.504 0 0 0 1.833 2.025l.172.182a92.648 92.648 0 0 0 5.964 5.833l.122.101c.678.608 1.367 1.205 2.025 1.792l.06.01z" fill="#435B71"/><path fill="#435B71" d="M159.529 97.516l3.554-38.956-35.513 16.404L92.058 91.37l19.381 13.67 13.68-6.318 13.671-6.32-1.367 15.008-1.367 15.007 19.928 14.055z"/><path d="M178.95 148.643l11.14-125.16a2.218 2.218 0 0 0-3.15-2.218L72.757 73.71a2.187 2.187 0 0 0-1.266 1.802c-.076.794.28 1.567.932 2.026L92.068 91.4l35.522-16.465 35.513-16.404-3.574 38.986-3.585 38.955 19.503 13.762c.644.453 1.48.53 2.197.202a2.187 2.187 0 0 0 1.307-1.792z" fill="#42B983"/><path fill="#435B71" d="M112.077 166.607l-35.391 16.657 3.27-38.975 3.271-38.986L102.7 118.84l-1.255 15.007-1.266 15.018 13.63-6.42 13.64-6.41 20.02 13.913z"/><path d="M166.759 167.366L52.95 220.63a2.218 2.218 0 0 1-3.15-2.187L60.019 93.161a2.187 2.187 0 0 1 1.256-1.802 2.218 2.218 0 0 1 2.197.192l19.746 13.762-3.22 38.976-3.311 38.996 35.442-16.658 35.441-16.658 19.514 13.59a2.218 2.218 0 0 1 .941 2.025 2.187 2.187 0 0 1-1.265 1.782z" fill="#42B983"/></g></svg>