<svg xmlns="http://www.w3.org/2000/svg" height="458" width="658"><path stroke="#0273d4" stroke-linecap="round" stroke-linejoin="mitter" d="M4 8h8M4 8v8m4-8h8m0 0h8m0 0h8m0 0h8m0 0h8m0 0h8m0 0h8m0 0h8m0 0h8m0 0h8m0 0h8m0 0h8m0 0h8m0 0h8m0 0h8m0 0h8m0 0h8m0 0h8m0 0h8m0 0h8m0 0h8m0 0h8m0 0h8m0 0h8m0 0h8m0 0h8m0 0h8m0 0h8m0 0h8m0 0h8m0 0h8m0 0h8m0 0h8m0 0h8m0 0h8m0 0h8m0 0h8m0 0h8m0 0h8m0 0h8m0 0h8m0 0h8m0 0h8m0 0h8m0 0h8m0 0h8m0 0h8m0 0h8m0 0h8m0 0h8m0 0h8m0 0h8m0 0h8m0 0h8m0 0h8m0 0h8m0 0h8m0 0h8m0 0h8m0 0h8m0 0h8m0 0h8m0 0h8m0 0h8m0 0h8m0 0h8m0 0h8m0 0h8m0 0h8m0 0h8m0 0h8m0 0h8m0 0h8m0 0h8m0 0h8m0 0h8m0 0h8m0 0h4m0 0v8M4 16v16"/><text x="22" y="28" font-size="14" font-family="monospace">Q</text><text x="30" y="28" font-size="14" font-family="monospace">L</text><text x="38" y="28" font-size="14" font-family="monospace">i</text><text x="46" y="28" font-size="14" font-family="monospace">s</text><text x="54" y="28" font-size="14" font-family="monospace">t</text><path stroke="#0273d4" stroke-linecap="round" stroke-linejoin="mitter" d="M628 16v16M4 32v16m16-8h8m-8 0v8m4-8h8m0 0h8m0 0h8m0 0h8m0 0h8m0 0h8m0 0h8m0 0h8m0 0h8m0 0h8m0 0h8m0 0h8m0 0h8m0 0h8m0 0h8m0 0h8m0 0h8m0 0h8m0 0h8m0 0h8m0 0h8m0 0h8m0 0h8m0 0h8m0 0h8m0 0h8m0 0h8m0 0h8m0 0h8m0 0h8m0 0h8m0 0h8m0 0h8m0 0h8m0 0h8m0 0h8m0 0h8m0 0h8m0 0h8m0 0h8m0 0h8m0 0h8m0 0h8m0 0h8m0 0h8m0 0h8m0 0h8m0 0h8m0 0h8m0 0h8m0 0h8m0 0h8m0 0h8m0 0h8m0 0h8m0 0h8m0 0h8m0 0h8m0 0h8m0 0h8m0 0h8m0 0h8m0 0h8m0 0h8m0 0h8m0 0h8m0 0h8m0 0h8m0 0h8m0 0h8m0 0h8m0 0h8m0 0h8m0 0h4m0 0v8m16-16v16M4 48v16m16-16v16"/><text x="38" y="60" font-size="14" font-family="monospace">Q</text><text x="46" y="60" font-size="14" font-family="monospace">L</text><text x="54" y="60" font-size="14" font-family="monospace">i</text><text x="62" y="60" font-size="14" font-family="monospace">s</text><text x="70" y="60" font-size="14" font-family="monospace">t</text><text x="78" y="60" font-size="14" font-family="monospace">H</text><text x="86" y="60" font-size="14" font-family="monospace">e</text><text x="94" y="60" font-size="14" font-family="monospace">a</text><text x="102" y="60" font-size="14" font-family="monospace">d</text><text x="110" y="60" font-size="14" font-family="monospace">e</text><text x="118" y="60" font-size="14" font-family="monospace">r</text><path stroke="#0273d4" stroke-linecap="round" stroke-linejoin="mitter" d="M612 48v16m16-16v16M4 64v16m16-16v8m0 0h8m-4 0h8m0 0h8m0 0h8m0 0h8m0 0h8m0 0h8m0 0h8m0 0h8m0 0h8m0 0h8m0 0h8m0 0h8m0 0h8m0 0h8m0 0h8m0 0h8m0 0h8m0 0h8m0 0h8m0 0h8m0 0h8m0 0h8m0 0h8m0 0h8m0 0h8m0 0h8m0 0h8m0 0h8m0 0h8m0 0h8m0 0h8m0 0h8m0 0h8m0 0h8m0 0h8m0 0h8m0 0h8m0 0h8m0 0h8m0 0h8m0 0h8m0 0h8m0 0h8m0 0h8m0 0h8m0 0h8m0 0h8m0 0h8m0 0h8m0 0h8m0 0h8m0 0h8m0 0h8m0 0h8m0 0h8m0 0h8m0 0h8m0 0h8m0 0h8m0 0h8m0 0h8m0 0h8m0 0h8m0 0h8m0 0h8m0 0h8m0 0h8m0 0h8m0 0h8m0 0h8m0 0h8m0 0h8m0 0h8m4-8v8m-4 0h4m16-8v16M4 80v16m16-8h8m-8 0v8m4-8h8m0 0h8m0 0h8m0 0h8m0 0h8m0 0h8m0 0h8m0 0h8m0 0h8m0 0h8m0 0h8m0 0h8m0 0h8m0 0h8m0 0h8m0 0h8m0 0h8m0 0h8m0 0h8m0 0h8m0 0h8m0 0h8m0 0h8m0 0h8m0 0h8m0 0h8m0 0h8m0 0h8m0 0h8m0 0h8m0 0h8m0 0h8m0 0h8m0 0h8m0 0h8m0 0h8m0 0h8m0 0h8m0 0h8m0 0h8m0 0h8m0 0h8m0 0h8m0 0h8m0 0h8m0 0h8m0 0h8m0 0h8m0 0h8m0 0h8m0 0h8m0 0h8m0 0h8m0 0h8m0 0h8m0 0h8m0 0h8m0 0h8m0 0h8m0 0h8m0 0h8m0 0h8m0 0h8m0 0h8m0 0h8m0 0h8m0 0h8m0 0h8m0 0h8m0 0h8m0 0h8m0 0h8m0 0h8m0 0h4m0 0v8m16-16v16M4 96v16m16-16v16"/><text x="38" y="108" font-size="14" font-family="monospace">Q</text><text x="46" y="108" font-size="14" font-family="monospace">I</text><text x="54" y="108" font-size="14" font-family="monospace">t</text><text x="62" y="108" font-size="14" font-family="monospace">e</text><text x="70" y="108" font-size="14" font-family="monospace">m</text><path stroke="#0273d4" stroke-linecap="round" stroke-linejoin="mitter" d="M612 96v16m16-16v16M4 112v16m16-16v16m16-8h8m-8 0v8m4-8h8m0 0h8m0 0h8m0 0h8m0 0h8m0 0h8m0 0h8m0 0h8m0 0h8m0 0h8m0 0h8m0 0h8m0 0h8m0 0h8m0 0h8m0 0h4m0 0v8m16-8h8m-8 0v8m4-8h8m0 0h8m0 0h8m0 0h8m0 0h8m0 0h8m0 0h8m0 0h8m0 0h8m0 0h8m0 0h8m0 0h8m0 0h8m0 0h8m0 0h8m0 0h8m0 0h8m0 0h8m0 0h8m0 0h8m0 0h8m0 0h8m0 0h8m0 0h8m0 0h8m0 0h8m0 0h8m0 0h8m0 0h8m0 0h8m0 0h8m0 0h8m0 0h8m0 0h4m0 0v8m16-8h8m-8 0v8m4-8h8m0 0h8m0 0h8m0 0h8m0 0h8m0 0h8m0 0h8m0 0h8m0 0h8m0 0h8m0 0h8m0 0h8m0 0h8m0 0h8m0 0h8m0 0h4m0 0v8m16-16v16m16-16v16M4 128v16m16-16v16m16-16v16"/><text x="54" y="140" font-size="14" font-family="monospace">Q</text><text x="62" y="140" font-size="14" font-family="monospace">I</text><text x="70" y="140" font-size="14" font-family="monospace">t</text><text x="78" y="140" font-size="14" font-family="monospace">e</text><text x="86" y="140" font-size="14" font-family="monospace">m</text><text x="94" y="140" font-size="14" font-family="monospace">S</text><text x="102" y="140" font-size="14" font-family="monospace">i</text><text x="110" y="140" font-size="14" font-family="monospace">d</text><text x="118" y="140" font-size="14" font-family="monospace">e</text><path stroke="#0273d4" stroke-linecap="round" stroke-linejoin="mitter" d="M164 128v16m16-16v16"/><text x="278" y="140" font-size="14" font-family="monospace">Q</text><text x="286" y="140" font-size="14" font-family="monospace">I</text><text x="294" y="140" font-size="14" font-family="monospace">t</text><text x="302" y="140" font-size="14" font-family="monospace">e</text><text x="310" y="140" font-size="14" font-family="monospace">m</text><text x="318" y="140" font-size="14" font-family="monospace">M</text><text x="326" y="140" font-size="14" font-family="monospace">a</text><text x="334" y="140" font-size="14" font-family="monospace">i</text><text x="342" y="140" font-size="14" font-family="monospace">n</text><path stroke="#0273d4" stroke-linecap="round" stroke-linejoin="mitter" d="M452 128v16m16-16v16"/><text x="486" y="140" font-size="14" font-family="monospace">Q</text><text x="494" y="140" font-size="14" font-family="monospace">I</text><text x="502" y="140" font-size="14" font-family="monospace">t</text><text x="510" y="140" font-size="14" font-family="monospace">e</text><text x="518" y="140" font-size="14" font-family="monospace">m</text><text x="526" y="140" font-size="14" font-family="monospace">S</text><text x="534" y="140" font-size="14" font-family="monospace">i</text><text x="542" y="140" font-size="14" font-family="monospace">d</text><text x="550" y="140" font-size="14" font-family="monospace">e</text><path stroke="#0273d4" stroke-linecap="round" stroke-linejoin="mitter" d="M596 128v16m16-16v16m16-16v16M4 144v16m16-16v16m16-16v16m16-8h8m-8 0v8m4-8h8m0 0h8m0 0h8m0 0h8m0 0h8m0 0h8m0 0h8m0 0h8m0 0h8m0 0h8m0 0h8m0 0h4m0 0v8m16-16v16m16-16v16m16-8h8m-8 0v8m4-8h8m0 0h8m0 0h8m0 0h8m0 0h8m0 0h8m0 0h8m0 0h8m0 0h8m0 0h8m0 0h8m0 0h8m0 0h8m0 0h8m0 0h8m0 0h8m0 0h8m0 0h8m0 0h8m0 0h8m0 0h8m0 0h8m0 0h8m0 0h8m0 0h8m0 0h8m0 0h8m0 0h8m0 0h8m0 0h4m0 0v8m16-16v16m16-16v16m16-8h8m-8 0v8m4-8h8m0 0h8m0 0h8m0 0h8m0 0h8m0 0h8m0 0h8m0 0h8m0 0h8m0 0h8m0 0h8m0 0h4m0 0v8m16-16v16m16-16v16m16-16v16M4 160v16m16-16v16m16-16v16m16-16v16"/><text x="62" y="172" font-size="14" font-family="monospace">Q</text><text x="70" y="172" font-size="14" font-family="monospace">I</text><text x="78" y="172" font-size="14" font-family="monospace">t</text><text x="86" y="172" font-size="14" font-family="monospace">e</text><text x="94" y="172" font-size="14" font-family="monospace">m</text><text x="102" y="172" font-size="14" font-family="monospace">T</text><text x="110" y="172" font-size="14" font-family="monospace">i</text><text x="118" y="172" font-size="14" font-family="monospace">l</text><text x="126" y="172" font-size="14" font-family="monospace">e</text><path stroke="#0273d4" stroke-linecap="round" stroke-linejoin="mitter" d="M148 160v16m16-16v16m16-16v16m16-16v16"/><text x="278" y="172" font-size="14" font-family="monospace">Q</text><text x="286" y="172" font-size="14" font-family="monospace">I</text><text x="294" y="172" font-size="14" font-family="monospace">t</text><text x="302" y="172" font-size="14" font-family="monospace">e</text><text x="310" y="172" font-size="14" font-family="monospace">m</text><text x="318" y="172" font-size="14" font-family="monospace">T</text><text x="326" y="172" font-size="14" font-family="monospace">i</text><text x="334" y="172" font-size="14" font-family="monospace">l</text><text x="342" y="172" font-size="14" font-family="monospace">e</text><path stroke="#0273d4" stroke-linecap="round" stroke-linejoin="mitter" d="M436 160v16m16-16v16m16-16v16m16-16v16"/><text x="494" y="172" font-size="14" font-family="monospace">Q</text><text x="502" y="172" font-size="14" font-family="monospace">I</text><text x="510" y="172" font-size="14" font-family="monospace">t</text><text x="518" y="172" font-size="14" font-family="monospace">e</text><text x="526" y="172" font-size="14" font-family="monospace">m</text><text x="534" y="172" font-size="14" font-family="monospace">T</text><text x="542" y="172" font-size="14" font-family="monospace">i</text><text x="550" y="172" font-size="14" font-family="monospace">l</text><text x="558" y="172" font-size="14" font-family="monospace">e</text><path stroke="#0273d4" stroke-linecap="round" stroke-linejoin="mitter" d="M580 160v16m16-16v16m16-16v16m16-16v16M4 176v16m16-16v16m16-16v16m16-16v8m0 0h8m-4 0h8m0 0h8m0 0h8m0 0h8m0 0h8m0 0h8m0 0h8m0 0h8m0 0h8m0 0h8m0 0h8m4-8v8m-4 0h4m16-8v16m16-16v16m16-16v8m0 0h8m-4 0h8m0 0h8m0 0h8m0 0h8m0 0h8m0 0h8m0 0h8m0 0h8m0 0h8m0 0h8m0 0h8m0 0h8m0 0h8m0 0h8m0 0h8m0 0h8m0 0h8m0 0h8m0 0h8m0 0h8m0 0h8m0 0h8m0 0h8m0 0h8m0 0h8m0 0h8m0 0h8m0 0h8m0 0h8m4-8v8m-4 0h4m16-8v16m16-16v16m16-16v8m0 0h8m-4 0h8m0 0h8m0 0h8m0 0h8m0 0h8m0 0h8m0 0h8m0 0h8m0 0h8m0 0h8m0 0h8m4-8v8m-4 0h4m16-8v16m16-16v16m16-16v16M4 192v16m16-16v16m16-16v8m0 0h8m-4 0h8m0 0h8m0 0h8m0 0h8m0 0h8m0 0h8m0 0h8m0 0h8m0 0h8m0 0h8m0 0h8m0 0h8m0 0h8m0 0h8m0 0h8m4-8v8m-4 0h4m16-8v16m16-8h8m-8 0v8m4-8h8m0 0h8m0 0h8m0 0h8m0 0h8m0 0h8m0 0h8m0 0h8m0 0h8m0 0h8m0 0h8m0 0h8m0 0h8m0 0h8m0 0h8m0 0h8m0 0h8m0 0h8m0 0h8m0 0h8m0 0h8m0 0h8m0 0h8m0 0h8m0 0h8m0 0h8m0 0h8m0 0h8m0 0h8m0 0h4m0 0v8m16-16v16m16-16v16m16-8h8m-8 0v8m4-8h8m0 0h8m0 0h8m0 0h8m0 0h8m0 0h8m0 0h8m0 0h8m0 0h8m0 0h8m0 0h8m0 0h4m0 0v8m16-16v16m16-16v16m16-16v16M4 208v16m16-16v16m160-16v16m16-16v16"/><text x="278" y="220" font-size="14" font-family="monospace">Q</text><text x="286" y="220" font-size="14" font-family="monospace">I</text><text x="294" y="220" font-size="14" font-family="monospace">t</text><text x="302" y="220" font-size="14" font-family="monospace">e</text><text x="310" y="220" font-size="14" font-family="monospace">m</text><text x="318" y="220" font-size="14" font-family="monospace">T</text><text x="326" y="220" font-size="14" font-family="monospace">i</text><text x="334" y="220" font-size="14" font-family="monospace">l</text><text x="342" y="220" font-size="14" font-family="monospace">e</text><path stroke="#0273d4" stroke-linecap="round" stroke-linejoin="mitter" d="M436 208v16m16-16v16m16-16v16m16-16v16"/><text x="494" y="220" font-size="14" font-family="monospace">Q</text><text x="502" y="220" font-size="14" font-family="monospace">I</text><text x="510" y="220" font-size="14" font-family="monospace">t</text><text x="518" y="220" font-size="14" font-family="monospace">e</text><text x="526" y="220" font-size="14" font-family="monospace">m</text><text x="534" y="220" font-size="14" font-family="monospace">T</text><text x="542" y="220" font-size="14" font-family="monospace">i</text><text x="550" y="220" font-size="14" font-family="monospace">l</text><text x="558" y="220" font-size="14" font-family="monospace">e</text><path stroke="#0273d4" stroke-linecap="round" stroke-linejoin="mitter" d="M580 208v16m16-16v16m16-16v16m16-16v16M4 224v16m16-16v16m160-16v16m16-16v8m0 0h8m-4 0h8m0 0h8m0 0h8m0 0h8m0 0h8m0 0h8m0 0h8m0 0h8m0 0h8m0 0h8m0 0h8m0 0h8m0 0h8m0 0h8m0 0h8m0 0h8m0 0h8m0 0h8m0 0h8m0 0h8m0 0h8m0 0h8m0 0h8m0 0h8m0 0h8m0 0h8m0 0h8m0 0h8m0 0h8m4-8v8m-4 0h4m16-8v16m16-16v16m16-16v8m0 0h8m-4 0h8m0 0h8m0 0h8m0 0h8m0 0h8m0 0h8m0 0h8m0 0h8m0 0h8m0 0h8m0 0h8m4-8v8m-4 0h4m16-8v16m16-16v16m16-16v16M4 240v16m16-16v16m160-16v8m0 0h8m-4 0h8m0 0h8m0 0h8m0 0h8m0 0h8m0 0h8m0 0h8m0 0h8m0 0h8m0 0h8m0 0h8m0 0h8m0 0h8m0 0h8m0 0h8m0 0h8m0 0h8m0 0h8m0 0h8m0 0h8m0 0h8m0 0h8m0 0h8m0 0h8m0 0h8m0 0h8m0 0h8m0 0h8m0 0h8m0 0h8m0 0h8m0 0h8m0 0h8m4-8v8m-4 0h4m16-8v8m0 0h8m-4 0h8m0 0h8m0 0h8m0 0h8m0 0h8m0 0h8m0 0h8m0 0h8m0 0h8m0 0h8m0 0h8m0 0h8m0 0h8m0 0h8m0 0h8m4-8v8m-4 0h4m16-8v16m16-16v16M4 256v16m16-16v8m0 0h8m-4 0h8m0 0h8m0 0h8m0 0h8m0 0h8m0 0h8m0 0h8m0 0h8m0 0h8m0 0h8m0 0h8m0 0h8m0 0h8m0 0h8m0 0h8m0 0h8m0 0h8m0 0h8m0 0h8m0 0h8m0 0h8m0 0h8m0 0h8m0 0h8m0 0h8m0 0h8m0 0h8m0 0h8m0 0h8m0 0h8m0 0h8m0 0h8m0 0h8m0 0h8m0 0h8m0 0h8m0 0h8m0 0h8m0 0h8m0 0h8m0 0h8m0 0h8m0 0h8m0 0h8m0 0h8m0 0h8m0 0h8m0 0h8m0 0h8m0 0h8m0 0h8m0 0h8m0 0h8m0 0h8m0 0h8m0 0h8m0 0h8m0 0h8m0 0h8m0 0h8m0 0h8m0 0h8m0 0h8m0 0h8m0 0h8m0 0h8m0 0h8m0 0h8m0 0h8m0 0h8m0 0h8m0 0h8m0 0h8m4-8v8m-4 0h4m16-8v16M4 272v16m16-8h8m-8 0v8m4-8h8m0 0h8m0 0h8m0 0h8m0 0h8m0 0h8m0 0h8m0 0h8m0 0h8m0 0h8m0 0h8m0 0h8m0 0h8m0 0h8m0 0h8m0 0h8m0 0h8m0 0h8m0 0h8m0 0h8m0 0h8m0 0h8m0 0h8m0 0h8m0 0h8m0 0h8m0 0h8m0 0h8m0 0h8m0 0h8m0 0h8m0 0h8m0 0h8m0 0h8m0 0h8m0 0h8m0 0h8m0 0h8m0 0h8m0 0h8m0 0h8m0 0h8m0 0h8m0 0h8m0 0h8m0 0h8m0 0h8m0 0h8m0 0h8m0 0h8m0 0h8m0 0h8m0 0h8m0 0h8m0 0h8m0 0h8m0 0h8m0 0h8m0 0h8m0 0h8m0 0h8m0 0h8m0 0h8m0 0h8m0 0h8m0 0h8m0 0h8m0 0h8m0 0h8m0 0h8m0 0h8m0 0h8m0 0h8m0 0h4m0 0v8m16-16v16M4 288v16m16-16v16"/><text x="38" y="300" font-size="14" font-family="monospace">Q</text><text x="46" y="300" font-size="14" font-family="monospace">I</text><text x="54" y="300" font-size="14" font-family="monospace">t</text><text x="62" y="300" font-size="14" font-family="monospace">e</text><text x="70" y="300" font-size="14" font-family="monospace">m</text><path stroke="#0273d4" stroke-linecap="round" stroke-linejoin="mitter" d="M612 288v16m16-16v16M4 304v16m16-16v8m0 0h8m-4 0h8m0 0h8m0 0h8m0 0h8m0 0h8m0 0h8m0 0h8m0 0h8m0 0h8m0 0h8m0 0h8m0 0h8m0 0h8m0 0h8m0 0h8m0 0h8m0 0h8m0 0h8m0 0h8m0 0h8m0 0h8m0 0h8m0 0h8m0 0h8m0 0h8m0 0h8m0 0h8m0 0h8m0 0h8m0 0h8m0 0h8m0 0h8m0 0h8m0 0h8m0 0h8m0 0h8m0 0h8m0 0h8m0 0h8m0 0h8m0 0h8m0 0h8m0 0h8m0 0h8m0 0h8m0 0h8m0 0h8m0 0h8m0 0h8m0 0h8m0 0h8m0 0h8m0 0h8m0 0h8m0 0h8m0 0h8m0 0h8m0 0h8m0 0h8m0 0h8m0 0h8m0 0h8m0 0h8m0 0h8m0 0h8m0 0h8m0 0h8m0 0h8m0 0h8m0 0h8m0 0h8m0 0h8m0 0h8m4-8v8m-4 0h4m16-8v16M4 320v16m16-8h8m-8 0v8m4-8h8m0 0h8m0 0h8m0 0h8m0 0h8m0 0h8m0 0h8m0 0h8m0 0h8m0 0h8m0 0h8m0 0h8m0 0h8m0 0h8m0 0h8m0 0h8m0 0h8m0 0h8m0 0h8m0 0h8m0 0h8m0 0h8m0 0h8m0 0h8m0 0h8m0 0h8m0 0h8m0 0h8m0 0h8m0 0h8m0 0h8m0 0h8m0 0h8m0 0h8m0 0h8m0 0h8m0 0h8m0 0h8m0 0h8m0 0h8m0 0h8m0 0h8m0 0h8m0 0h8m0 0h8m0 0h8m0 0h8m0 0h8m0 0h8m0 0h8m0 0h8m0 0h8m0 0h8m0 0h8m0 0h8m0 0h8m0 0h8m0 0h8m0 0h8m0 0h8m0 0h8m0 0h8m0 0h8m0 0h8m0 0h8m0 0h8m0 0h8m0 0h8m0 0h8m0 0h8m0 0h8m0 0h8m0 0h8m0 0h4m0 0v8m16-16v16M4 336v16m16-16v16"/><text x="38" y="348" font-size="14" font-family="monospace">Q</text><text x="46" y="348" font-size="14" font-family="monospace">I</text><text x="54" y="348" font-size="14" font-family="monospace">t</text><text x="62" y="348" font-size="14" font-family="monospace">e</text><text x="70" y="348" font-size="14" font-family="monospace">m</text><text x="78" y="348" font-size="14" font-family="monospace">S</text><text x="86" y="348" font-size="14" font-family="monospace">e</text><text x="94" y="348" font-size="14" font-family="monospace">p</text><text x="102" y="348" font-size="14" font-family="monospace">a</text><text x="110" y="348" font-size="14" font-family="monospace">r</text><text x="118" y="348" font-size="14" font-family="monospace">a</text><text x="126" y="348" font-size="14" font-family="monospace">t</text><text x="134" y="348" font-size="14" font-family="monospace">o</text><text x="142" y="348" font-size="14" font-family="monospace">r</text><path stroke="#0273d4" stroke-linecap="round" stroke-linejoin="mitter" d="M612 336v16m16-16v16M4 352v16m16-16v8m0 0h8m-4 0h8m0 0h8m0 0h8m0 0h8m0 0h8m0 0h8m0 0h8m0 0h8m0 0h8m0 0h8m0 0h8m0 0h8m0 0h8m0 0h8m0 0h8m0 0h8m0 0h8m0 0h8m0 0h8m0 0h8m0 0h8m0 0h8m0 0h8m0 0h8m0 0h8m0 0h8m0 0h8m0 0h8m0 0h8m0 0h8m0 0h8m0 0h8m0 0h8m0 0h8m0 0h8m0 0h8m0 0h8m0 0h8m0 0h8m0 0h8m0 0h8m0 0h8m0 0h8m0 0h8m0 0h8m0 0h8m0 0h8m0 0h8m0 0h8m0 0h8m0 0h8m0 0h8m0 0h8m0 0h8m0 0h8m0 0h8m0 0h8m0 0h8m0 0h8m0 0h8m0 0h8m0 0h8m0 0h8m0 0h8m0 0h8m0 0h8m0 0h8m0 0h8m0 0h8m0 0h8m0 0h8m0 0h8m0 0h8m4-8v8m-4 0h4m16-8v16M4 368v16m16-8h8m-8 0v8m4-8h8m0 0h8m0 0h8m0 0h8m0 0h8m0 0h8m0 0h8m0 0h8m0 0h8m0 0h8m0 0h8m0 0h8m0 0h8m0 0h8m0 0h8m0 0h8m0 0h8m0 0h8m0 0h8m0 0h8m0 0h8m0 0h8m0 0h8m0 0h8m0 0h8m0 0h8m0 0h8m0 0h8m0 0h8m0 0h8m0 0h8m0 0h8m0 0h8m0 0h8m0 0h8m0 0h8m0 0h8m0 0h8m0 0h8m0 0h8m0 0h8m0 0h8m0 0h8m0 0h8m0 0h8m0 0h8m0 0h8m0 0h8m0 0h8m0 0h8m0 0h8m0 0h8m0 0h8m0 0h8m0 0h8m0 0h8m0 0h8m0 0h8m0 0h8m0 0h8m0 0h8m0 0h8m0 0h8m0 0h8m0 0h8m0 0h8m0 0h8m0 0h8m0 0h8m0 0h8m0 0h8m0 0h8m0 0h8m0 0h4m0 0v8m16-16v16M4 384v16m16-16v16"/><text x="38" y="396" font-size="14" font-family="monospace">Q</text><text x="46" y="396" font-size="14" font-family="monospace">I</text><text x="54" y="396" font-size="14" font-family="monospace">t</text><text x="62" y="396" font-size="14" font-family="monospace">e</text><text x="70" y="396" font-size="14" font-family="monospace">m</text><path stroke="#0273d4" stroke-linecap="round" stroke-linejoin="mitter" d="M612 384v16m16-16v16M4 400v16m16-16v8m0 0h8m-4 0h8m0 0h8m0 0h8m0 0h8m0 0h8m0 0h8m0 0h8m0 0h8m0 0h8m0 0h8m0 0h8m0 0h8m0 0h8m0 0h8m0 0h8m0 0h8m0 0h8m0 0h8m0 0h8m0 0h8m0 0h8m0 0h8m0 0h8m0 0h8m0 0h8m0 0h8m0 0h8m0 0h8m0 0h8m0 0h8m0 0h8m0 0h8m0 0h8m0 0h8m0 0h8m0 0h8m0 0h8m0 0h8m0 0h8m0 0h8m0 0h8m0 0h8m0 0h8m0 0h8m0 0h8m0 0h8m0 0h8m0 0h8m0 0h8m0 0h8m0 0h8m0 0h8m0 0h8m0 0h8m0 0h8m0 0h8m0 0h8m0 0h8m0 0h8m0 0h8m0 0h8m0 0h8m0 0h8m0 0h8m0 0h8m0 0h8m0 0h8m0 0h8m0 0h8m0 0h8m0 0h8m0 0h8m0 0h8m4-8v8m-4 0h4m16-8v16M4 416v8m0 0h8m-4 0h8m0 0h8m0 0h8m0 0h8m0 0h8m0 0h8m0 0h8m0 0h8m0 0h8m0 0h8m0 0h8m0 0h8m0 0h8m0 0h8m0 0h8m0 0h8m0 0h8m0 0h8m0 0h8m0 0h8m0 0h8m0 0h8m0 0h8m0 0h8m0 0h8m0 0h8m0 0h8m0 0h8m0 0h8m0 0h8m0 0h8m0 0h8m0 0h8m0 0h8m0 0h8m0 0h8m0 0h8m0 0h8m0 0h8m0 0h8m0 0h8m0 0h8m0 0h8m0 0h8m0 0h8m0 0h8m0 0h8m0 0h8m0 0h8m0 0h8m0 0h8m0 0h8m0 0h8m0 0h8m0 0h8m0 0h8m0 0h8m0 0h8m0 0h8m0 0h8m0 0h8m0 0h8m0 0h8m0 0h8m0 0h8m0 0h8m0 0h8m0 0h8m0 0h8m0 0h8m0 0h8m0 0h8m0 0h8m0 0h8m0 0h8m0 0h8m0 0h8m4-8v8m-4 0h4"/></svg>